<svg width="70" height="70" viewBox="0 0 70 70" fill="none" xmlns="http://www.w3.org/2000/svg">
<g clip-path="url(#clip0)">
<path d="M66.7878 10.7147L54.6059 5.63954C53.2696 5.08295 51.737 5.08309 50.4008 5.63967L44.552 8.07586C44.0292 8.29379 43.7819 8.89399 43.9996 9.4168C44.2174 9.93961 44.8176 10.1871 45.3406 9.96914L51.1894 7.53282C52.0241 7.185 52.9821 7.18487 53.8174 7.53268L65.9987 12.6075C67.1835 13.1018 67.9492 14.2132 67.9492 15.4386V59.2911C67.9492 60.9964 66.4846 62.3837 64.6844 62.3837H63.0219C62.4555 62.3837 61.9965 62.8427 61.9965 63.4091C61.9965 63.9755 62.4555 64.4345 63.0219 64.4345H64.6844C67.6154 64.4345 70 62.1272 70 59.2911V15.4386C70 13.3829 68.7392 11.5287 66.7878 10.7147Z" fill="#3A3A3A"/>
<path d="M58.5525 62.3838H41.3232C42.0327 61.5775 42.4211 60.5544 42.4211 59.4717C42.4211 58.3912 42.0299 57.401 41.3827 56.6332C41.7908 56.425 42.1687 56.1525 42.5023 55.819C43.3352 54.986 43.7938 53.8784 43.7938 52.7001C43.7938 51.5768 43.371 50.5508 42.6772 49.7713C43.0207 49.5767 43.3407 49.3355 43.6272 49.0487C44.4601 48.216 44.9188 47.1084 44.9188 45.9297C44.9188 44.8097 44.4987 43.7864 43.8088 43.0075C44.1581 42.8115 44.4835 42.5673 44.7753 42.2762C45.6076 41.442 46.0659 40.3347 46.0659 39.1579C46.0659 36.7252 44.0873 34.746 41.6552 34.746H37.0573V15.4386C37.0573 14.213 37.8231 13.1017 39.0074 12.6077L40.8723 11.8311C41.3952 11.6135 41.6425 11.0133 41.4248 10.4903C41.207 9.96752 40.6068 9.71978 40.084 9.93785L38.2184 10.7147C36.2672 11.5286 35.0066 13.3829 35.0066 15.4386V34.7461H30.7222C32.1489 30.2377 32.0275 25.5325 30.3625 20.0716C30.1096 19.2446 29.6064 18.5362 28.9071 18.0231C28.2119 17.5132 27.388 17.2434 26.5244 17.2434C25.4118 17.2434 24.3772 17.6878 23.6111 18.4945C22.8453 19.3012 22.4554 20.3572 22.5131 21.4679C22.8337 27.6335 19.9896 29.7556 16.0534 32.693C14.7574 33.6601 13.341 34.7177 11.9489 36.0148V34.6708C11.9489 34.1044 11.49 33.6454 10.9236 33.6454H1.02539C0.458965 33.6454 0 34.1044 0 34.6708V63.7523C0 64.3187 0.458965 64.7777 1.02539 64.7777H10.9238C11.4903 64.7777 11.9492 64.3187 11.9492 63.7523V61.1727C13.8968 61.3579 15.3192 61.7461 16.7012 62.8052C17.6084 63.5006 18.7268 63.8835 19.8502 63.8835H37.9341C38.673 64.2436 39.492 64.4345 40.3223 64.4345H58.5524C59.1188 64.4345 59.5778 63.9755 59.5778 63.4091C59.5778 62.8427 59.1188 62.3838 58.5525 62.3838ZM17.9487 61.1774C16.0152 59.6958 13.9489 59.2842 11.9492 59.1115V47.1383C11.9492 46.5719 11.4903 46.1129 10.9238 46.1129C10.3574 46.1129 9.89844 46.5719 9.89844 47.1383V62.727H2.05078V35.6963H9.89844V42.6705C9.89844 43.2369 10.3574 43.6959 10.9238 43.6959C11.4903 43.6959 11.9492 43.2369 11.9492 42.6705V38.9278C13.6645 37.035 15.5012 35.6644 17.2802 34.3368C21.2189 31.3978 24.939 28.6216 24.5615 21.3615C24.5332 20.8181 24.7239 20.3014 25.0988 19.9067C25.4737 19.5117 25.9801 19.2943 26.5248 19.2943C26.949 19.2943 27.3533 19.4265 27.6942 19.6767C28.0345 19.9264 28.279 20.2704 28.4015 20.6708C30.0973 26.2332 30.0707 30.9131 28.318 35.3987C28.1947 35.7143 28.2353 36.0703 28.4263 36.3501C28.6173 36.63 28.9342 36.7973 29.273 36.7973H41.6555C42.9568 36.7973 44.0154 37.8565 44.0154 39.1585C44.0154 39.7881 43.7697 40.381 43.3252 40.8266C42.8781 41.2726 42.2853 41.5182 41.6555 41.5182H37.4432C36.8767 41.5182 36.4178 41.9772 36.4178 42.5436C36.4178 43.1101 36.8767 43.569 37.4432 43.569H40.5084C41.8096 43.569 42.8682 44.6282 42.8682 45.9303C42.8682 46.561 42.6229 47.1537 42.1772 47.5992C41.7318 48.0448 41.1391 48.2901 40.5084 48.2901H37.4432C36.8767 48.2901 36.4178 48.749 36.4178 49.3154C36.4178 49.8819 36.8767 50.3408 37.4432 50.3408H39.3831C40.6844 50.3408 41.743 51.3995 41.743 52.7006C41.743 53.3312 41.4976 53.924 41.0521 54.3695C40.6056 54.8161 40.0128 55.0617 39.3831 55.0617H38.0104H36.3178C35.7514 55.0617 35.2924 55.5207 35.2924 56.0871C35.2924 56.6536 35.7514 57.1125 36.3178 57.1125H38.0104C39.3117 57.1125 40.3703 58.1711 40.3703 59.4723C40.3703 60.1028 40.1246 60.6962 39.6803 61.1416C39.2638 61.5571 38.606 61.8222 38.1136 61.831C38.0796 61.8315 19.8502 61.8334 19.8502 61.8334C19.1754 61.8327 18.5 61.6 17.9487 61.1774Z" fill="#3A3A3A"/>
<path d="M56.204 15.894C56.204 13.7393 54.451 11.9863 52.2963 11.9863C50.1416 11.9863 48.3886 13.7393 48.3886 15.894C48.3886 18.0487 50.1416 19.8017 52.2963 19.8017C54.451 19.8017 56.204 18.0487 56.204 15.894ZM50.4394 15.894C50.4394 14.8701 51.2724 14.0371 52.2963 14.0371C53.3202 14.0371 54.1532 14.8701 54.1532 15.894C54.1532 16.9179 53.3202 17.7509 52.2963 17.7509C51.2724 17.7509 50.4394 16.918 50.4394 15.894Z" fill="#3A3A3A"/>
<path d="M52.937 50.8818H51.0979C50.1293 50.8818 49.3412 50.0936 49.3412 49.125C49.3412 48.5586 48.8823 48.0996 48.3159 48.0996C47.7494 48.0996 47.2905 48.5586 47.2905 49.125C47.2905 51.189 48.9415 52.8734 50.992 52.9299V55.1991C50.992 55.7656 51.451 56.2245 52.0174 56.2245C52.5838 56.2245 53.0428 55.7656 53.0428 55.1991V52.9299C55.0934 52.8734 56.7444 51.189 56.7444 49.125V47.7054C56.7444 46.3884 55.9029 45.2303 54.6503 44.8231L50.0183 43.3185C49.6133 43.1869 49.3412 42.8125 49.3412 42.3868V40.3542C49.3412 39.5675 49.9812 38.9274 50.7679 38.9274H53.2671C54.0538 38.9274 54.6938 39.5675 54.6938 40.3542C54.6938 40.9206 55.1527 41.3796 55.7192 41.3796C56.2856 41.3796 56.7446 40.9206 56.7446 40.3542C56.7446 38.4367 55.1846 36.8766 53.2671 36.8766H53.0428V34.6101C53.0428 34.0437 52.5838 33.5847 52.0174 33.5847C51.451 33.5847 50.992 34.0437 50.992 34.6101V36.8766H50.7678C48.8504 36.8766 47.2903 38.4366 47.2903 40.3542V42.3868C47.2903 43.7038 48.1318 44.862 49.3845 45.269L54.0163 46.7736C54.4214 46.9052 54.6935 47.2797 54.6935 47.7054V49.125C54.6938 50.0936 53.9056 50.8818 52.937 50.8818Z" fill="#EE53BA"/>
</g>
<defs>
<clipPath id="clip0">
<rect width="70" height="70" fill="white"/>
</clipPath>
</defs>
</svg>
