<svg width="76" height="74" viewBox="0 0 76 74" fill="none" xmlns="http://www.w3.org/2000/svg">
<path d="M70.9062 26.555C70.9062 23.8195 68.6805 21.5938 65.945 21.5938C64.6205 21.5938 63.3736 22.11 62.4373 23.0473L59.1955 26.2892L55.5938 29.8909V19.3188C59.2983 18.785 62.1562 15.5989 62.1562 11.75C62.1562 7.52813 58.7219 4.09375 54.5 4.09375H10.75C6.52813 4.09375 3.09375 7.52813 3.09375 11.75V66.4375C3.09375 67.0412 3.58375 67.5312 4.1875 67.5312H9.65625V70.8125C9.65625 71.4163 10.1463 71.9062 10.75 71.9062H54.5C55.1037 71.9062 55.5938 71.4163 55.5938 70.8125V43.9216L66.2108 33.3045L67.3341 32.1812C66.7675 35.0031 65.3861 37.5975 63.3058 39.6789L58.1028 44.8819L59.6494 46.4284L64.8523 41.2255C67.9564 38.1214 69.6922 34.022 69.7939 29.6481C70.5016 28.7709 70.9062 27.6991 70.9062 26.555ZM63.9839 24.5939C64.5078 24.07 65.2045 23.7812 65.945 23.7812C67.4741 23.7812 68.7188 25.0259 68.7188 26.555C68.7188 27.2955 68.43 27.9922 67.9061 28.5161L65.4375 30.9847L61.5153 27.0625L63.9839 24.5939ZM59.9688 28.6091L61.1566 29.7969L47.3906 43.5628L46.2028 42.375L59.9688 28.6091ZM33.9561 57.472L36.2059 52.9712L39.5288 56.2941L35.028 58.5439L33.9561 57.472ZM37.4528 51.125L44.6562 43.9216L48.5784 47.8438L41.375 55.0472L37.4528 51.125ZM54.5 6.28125C57.5155 6.28125 59.9688 8.73453 59.9688 11.75C59.9688 14.7655 57.5155 17.2188 54.5 17.2188H16.0984C17.5203 15.8275 18.4062 13.8916 18.4062 11.75C18.4062 9.60844 17.5203 7.6725 16.0984 6.28125H54.5ZM11.8438 17.1083V13.9375C11.8438 13.3348 12.3348 12.8438 12.9375 12.8438H16.1083C15.6719 14.9831 13.9831 16.6719 11.8438 17.1083ZM5.28125 65.3438V11.75C5.28125 8.73453 7.73453 6.28125 10.75 6.28125C13.3903 6.28125 15.5997 8.16359 16.1083 10.6562H12.9375C11.1284 10.6562 9.65625 12.1284 9.65625 13.9375V65.3438H5.28125ZM53.4062 69.7188H11.8438V19.4062H53.4062V32.0784L48.5784 36.9062H16.2188V39.0938H46.3909L44.2034 41.2812H16.2188V43.4688H42.0159L35.133 50.3517C35.0477 50.437 34.9919 50.5387 34.9405 50.6416L34.9284 50.635L31.6472 57.1975C31.4372 57.6186 31.5192 58.1272 31.8528 58.4597L32.1722 58.7812L29.6642 61.2892L31.2108 62.8358L33.7188 60.3278L34.0392 60.6483C34.2492 60.8583 34.5292 60.9688 34.8125 60.9688C34.9777 60.9688 35.1461 60.9305 35.3014 60.8539L41.8639 57.5727L41.8573 57.5606C41.9602 57.5092 42.0619 57.4534 42.1472 57.3681L50.8972 48.6181L53.4062 46.1091V69.7188ZM50.125 46.2972L48.9372 45.1094L62.7031 31.3434L63.8909 32.5312L50.125 46.2972Z" fill="#3A3A3A"/>
<path d="M16.2188 23.7812H49.0312V25.9688H16.2188V23.7812Z" fill="#3A3A3A"/>
<path d="M16.2188 28.1562H49.0312V30.3438H16.2188V28.1562Z" fill="#3A3A3A"/>
<path d="M16.2188 32.5312H49.0312V34.7188H16.2188V32.5312Z" fill="#3A3A3A"/>
<path d="M20.2188 55.7812H32.25V57.9688H20.2188V55.7812Z" fill="#EE53BA"/>
<path d="M16.2188 63.1562H49.0312V65.3438H16.2188V63.1562Z" fill="#EE53BA"/>
</svg>
