<svg width="200" height="50" xmlns="http://www.w3.org/2000/svg">
 <defs>
  <linearGradient y2="0.99997" x2="0.5" y1="0" x1="0.5" id="paint0_linear">
   <stop stop-opacity="0" stop-color="#F91CAF"/>
   <stop stop-color="#EE53BA" offset="1"/>
  </linearGradient>
  <linearGradient y2="1.43865" x2="1.06096" y1="-0.33563" x1="1.06096" id="paint1_linear">
   <stop stop-color="white"/>
   <stop stop-color="#E60097" offset="1"/>
  </linearGradient>
 </defs>
 <g>
  <title>Layer 1</title>
  <circle id="svg_1" fill="white" r="25" cy="25" cx="25.1767"/>
  <rect transform="rotate(21.9328 13.6857 14.7693)" id="svg_2" fill="url(#paint0_linear)" height="14.8921" width="32.025" y="14.7693" x="13.6857"/>
  <path id="svg_3" fill="black" d="m43.9632,28.4258c-0.6528,-3.047 -2.5143,-5.542 -5.1706,-6.8998l-7.5515,-3.8601l1.7073,-3.2241c0.8647,-1.6329 2.5357,-2.6941 4.2185,-2.6852l3.6221,-0.0106l0.2486,-2.746l-3.622,0.0107c-2.7237,0.0442 -5.3314,1.6907 -6.7061,4.2867l-1.7072,3.224l-7.4756,-3.8213c-5.2367,-2.6769 -11.9922,-0.118 -15.014,5.6796c-3.02174,5.7971 -1.2549,12.6601 4.004,15.2941c2.6183,1.339 5.7658,1.405 8.718,0.201l3.3014,1.687c1.3277,6.052 7.1903,9.369 13.1071,7.392c5.9168,-1.977 9.6476,-8.476 8.32,-14.528zm-26.7251,-3.074l-1.2143,-0.621l-0.7095,1.34c-0.3769,0.712 -1.1585,1.004 -1.8036,0.674c-0.6451,-0.329 -0.8502,-1.126 -0.4732,-1.838l0.7095,-1.339l-1.2143,-0.621c-0.6451,-0.33 -0.8502,-1.1264 -0.4733,-1.8382c0.3769,-0.7118 1.1585,-1.004 1.8036,-0.6742l1.2143,0.6207l0.7095,-1.3399c0.3769,-0.7118 1.1584,-1.0039 1.8035,-0.6742c0.6451,0.3298 0.8502,1.1263 0.4733,1.8381l-0.7095,1.3399l1.2143,0.6208c0.6451,0.33 0.8502,1.126 0.4733,1.838c-0.377,0.712 -1.1585,1.004 -1.8036,0.674zm11.9499,11.216c-1.2902,-0.659 -1.7319,-2.375 -0.9781,-3.798c0.7538,-1.424 2.4372,-2.053 3.7274,-1.394c1.2902,0.66 1.7319,2.375 0.978,3.799c-0.7538,1.423 -2.4371,2.053 -3.7273,1.393zm6.4711,-3.023c-1.2902,-0.66 -1.7319,-2.375 -0.9781,-3.799c0.7538,-1.423 2.4372,-2.053 3.7274,-1.393c1.2902,0.659 1.7319,2.375 0.978,3.798c-0.7538,1.424 -2.4371,2.053 -3.7273,1.394z"/>
  <path id="svg_5" fill="url(#paint1_linear)" d="m64.936,26.723l4.2,0l0,6.96c-0.96,0.688 -2.064,1.216 -3.312,1.584c-1.248,0.368 -2.496,0.552 -3.744,0.552c-1.76,0 -3.344,-0.368 -4.752,-1.104c-1.408,-0.752 -2.512,-1.792 -3.312,-3.12c-0.8,-1.328 -1.2,-2.832 -1.2,-4.512c0,-1.68 0.4,-3.184 1.2,-4.5117c0.8,-1.328 1.912,-2.36 3.336,-3.096c1.424,-0.752 3.032,-1.128 4.824,-1.128c1.568,0 2.976,0.264 4.224,0.792c1.248,0.528 2.288,1.288 3.12,2.28l-3.024,2.7357c-1.136,-1.2477 -2.496,-1.8717 -4.08,-1.8717c-1.44,0 -2.6,0.44 -3.48,1.3197c-0.88,0.864 -1.32,2.024 -1.32,3.48c0,0.928 0.2,1.76 0.6,2.496c0.4,0.72 0.96,1.288 1.68,1.704c0.72,0.4 1.544,0.6 2.472,0.6c0.912,0 1.768,-0.184 2.568,-0.552l0,-4.608zm12.5407,-4.4637c2.16,0 3.808,0.496 4.944,1.4877c1.136,0.976 1.7043,2.48 1.7043,4.512l0,7.224l-4.2483,0l0,-1.68c-0.656,1.264 -1.936,1.896 -3.84,1.896c-1.008,0 -1.88,-0.176 -2.616,-0.528c-0.736,-0.352 -1.296,-0.824 -1.68,-1.416c-0.368,-0.608 -0.552,-1.296 -0.552,-2.064c0,-1.232 0.472,-2.184 1.416,-2.856c0.944,-0.688 2.4,-1.032 4.368,-1.032l2.592,0c-0.08,-1.376 -1,-2.064 -2.76,-2.064c-0.624,0 -1.256,0.104 -1.896,0.312c-0.64,0.192 -1.184,0.464 -1.632,0.816l-1.536,-3.096c0.72,-0.48 1.592,-0.8477 2.616,-1.1037c1.04,-0.272 2.08,-0.408 3.12,-0.408zm-0.168,10.5597c0.528,0 0.992,-0.128 1.392,-0.384c0.4,-0.256 0.688,-0.632 0.864,-1.128l0,-1.128l-1.968,0c-1.328,0 -1.992,0.44 -1.992,1.32c0,0.4 0.152,0.72 0.456,0.96c0.304,0.24 0.72,0.36 1.248,0.36zm26.6383,-10.5597c1.6,0 2.872,0.48 3.816,1.4397c0.96,0.96 1.44,2.408 1.44,4.344l0,7.44l-4.56,0l0,-6.696c0,-0.912 -0.176,-1.584 -0.528,-2.016c-0.336,-0.432 -0.816,-0.648 -1.44,-0.648c-0.688,0 -1.24,0.24 -1.656,0.72c-0.416,0.48 -0.624,1.208 -0.624,2.184l0,6.456l-4.56,0l0,-6.696c0,-1.776 -0.656,-2.664 -1.968,-2.664c-0.704,0 -1.264,0.24 -1.68,0.72c-0.416,0.48 -0.624,1.208 -0.624,2.184l0,6.456l-4.56,0l0,-13.0077l4.344,0l0,1.3677c0.48,-0.528 1.048,-0.9197 1.704,-1.1757c0.672,-0.272 1.4,-0.408 2.184,-0.408c0.912,0 1.728,0.168 2.448,0.504c0.72,0.3357 1.304,0.8477 1.752,1.5357c0.512,-0.656 1.16,-1.16 1.944,-1.5117c0.784,-0.352 1.64,-0.528 2.568,-0.528zm21.618,6.7437c0,0.032 -0.024,0.408 -0.072,1.128l-9.456,0c0.192,0.672 0.56,1.192 1.104,1.56c0.56,0.352 1.256,0.528 2.088,0.528c0.624,0 1.16,-0.088 1.608,-0.264c0.464,-0.176 0.928,-0.464 1.392,-0.864l2.4,2.496c-1.264,1.408 -3.112,2.112 -5.544,2.112c-1.52,0 -2.856,-0.288 -4.008,-0.864c-1.152,-0.576 -2.048,-1.376 -2.688,-2.4c-0.624,-1.024 -0.936,-2.184 -0.936,-3.48c0,-1.28 0.304,-2.424 0.912,-3.432c0.624,-1.024 1.48,-1.824 2.568,-2.4c1.088,-0.5757 2.312,-0.8637 3.672,-0.8637c1.296,0 2.472,0.272 3.528,0.8157c1.056,0.528 1.888,1.304 2.496,2.328c0.624,1.008 0.936,2.208 0.936,3.6zm-6.936,-3.504c-0.704,0 -1.296,0.2 -1.776,0.6c-0.464,0.4 -0.76,0.944 -0.888,1.632l5.328,0c-0.128,-0.688 -0.432,-1.232 -0.912,-1.632c-0.464,-0.4 -1.048,-0.6 -1.752,-0.6z"/>
  <path id="svg_6" fill="white" d="m133.787,35.819c-1.36,0 -2.68,-0.168 -3.96,-0.504c-1.28,-0.336 -2.32,-0.784 -3.12,-1.344l1.56,-3.504c0.752,0.496 1.624,0.896 2.616,1.2c0.992,0.304 1.968,0.456 2.928,0.456c1.824,0 2.736,-0.456 2.736,-1.368c0,-0.48 -0.264,-0.832 -0.792,-1.056c-0.512,-0.24 -1.344,-0.488 -2.496,-0.744c-1.264,-0.272 -2.32,-0.56 -3.168,-0.864c-0.848,-0.32 -1.576,-0.824 -2.184,-1.512c-0.608,-0.688 -0.912,-1.616 -0.912,-2.784c0,-1.0237 0.28,-1.9437 0.84,-2.7597c0.56,-0.832 1.392,-1.488 2.496,-1.968c1.12,-0.48 2.488,-0.72 4.104,-0.72c1.104,0 2.192,0.128 3.264,0.384c1.072,0.24 2.016,0.6 2.832,1.08l-1.464,3.5277c-1.6,-0.8637 -3.152,-1.2957 -4.656,-1.2957c-0.944,0 -1.632,0.144 -2.064,0.432c-0.432,0.272 -0.648,0.6317 -0.648,1.0797c0,0.448 0.256,0.784 0.768,1.008c0.512,0.224 1.336,0.456 2.472,0.696c1.28,0.272 2.336,0.568 3.168,0.888c0.848,0.304 1.576,0.8 2.184,1.488c0.624,0.672 0.936,1.592 0.936,2.76c0,1.008 -0.28,1.92 -0.84,2.736c-0.56,0.816 -1.4,1.472 -2.52,1.968c-1.12,0.48 -2.48,0.72 -4.08,0.72zm18.395,-0.864c-0.384,0.24 -0.856,0.424 -1.416,0.552c-0.544,0.128 -1.128,0.192 -1.752,0.192c-1.696,0 -3,-0.416 -3.912,-1.248c-0.912,-0.832 -1.368,-2.072 -1.368,-3.72l0,-4.368l-1.896,0l0,-3.4077l1.896,0l0,-3.384l4.56,0l0,3.384l2.976,0l0,3.4077l-2.976,0l0,4.32c0,0.464 0.12,0.832 0.36,1.104c0.256,0.256 0.592,0.384 1.008,0.384c0.528,0 0.992,-0.136 1.392,-0.408l1.128,3.192zm7.912,0.744c-1.392,0 -2.648,-0.288 -3.768,-0.864c-1.12,-0.576 -2,-1.376 -2.64,-2.4c-0.624,-1.024 -0.936,-2.184 -0.936,-3.48c0,-1.28 0.312,-2.432 0.936,-3.456c0.64,-1.024 1.512,-1.816 2.616,-2.376c1.12,-0.5757 2.384,-0.8637 3.792,-0.8637c1.408,0 2.672,0.288 3.792,0.8637c1.12,0.56 1.992,1.352 2.616,2.376c0.624,1.008 0.936,2.16 0.936,3.456c0,1.296 -0.312,2.456 -0.936,3.48c-0.624,1.024 -1.496,1.824 -2.616,2.4c-1.12,0.576 -2.384,0.864 -3.792,0.864zm0,-3.624c0.8,0 1.456,-0.272 1.968,-0.816c0.512,-0.56 0.768,-1.328 0.768,-2.304c0,-0.96 -0.256,-1.712 -0.768,-2.256c-0.512,-0.544 -1.168,-0.816 -1.968,-0.816c-0.8,0 -1.456,0.272 -1.968,0.816c-0.512,0.544 -0.768,1.296 -0.768,2.256c0,0.976 0.256,1.744 0.768,2.304c0.512,0.544 1.168,0.816 1.968,0.816zm16.104,3.624c-1.44,0 -2.728,-0.288 -3.864,-0.864c-1.136,-0.576 -2.024,-1.376 -2.664,-2.4c-0.624,-1.024 -0.936,-2.184 -0.936,-3.48c0,-1.296 0.312,-2.448 0.936,-3.456c0.64,-1.024 1.528,-1.816 2.664,-2.376c1.136,-0.5757 2.424,-0.8637 3.864,-0.8637c1.472,0 2.744,0.32 3.816,0.9597c1.072,0.624 1.832,1.496 2.28,2.616l-3.528,1.8c-0.592,-1.168 -1.456,-1.752 -2.592,-1.752c-0.816,0 -1.496,0.272 -2.04,0.816c-0.528,0.544 -0.792,1.296 -0.792,2.256c0,0.976 0.264,1.744 0.792,2.304c0.544,0.544 1.224,0.816 2.04,0.816c1.136,0 2,-0.584 2.592,-1.752l3.528,1.8c-0.448,1.12 -1.208,2 -2.28,2.64c-1.072,0.624 -2.344,0.936 -3.816,0.936zm13.67,-4.776l-1.344,1.368l0,3.192l-4.56,0l0,-17.8077l4.56,0l0,9.3357l4.656,-4.5357l5.4,0l-5.4,5.5677l5.856,7.44l-5.52,0l-3.648,-4.56z"/>
 </g>
</svg>