<svg width="217" height="50" viewBox="0 0 217 50" fill="none" xmlns="http://www.w3.org/2000/svg">
<path fill-rule="evenodd" clip-rule="evenodd" d="M25.1992 9.73246C27.4558 7.69469 30.4979 6.82733 33.6204 7.31218C39.8337 8.24565 44.6201 14.1613 44.3273 20.5172C44.0345 26.8731 38.7511 31.2542 32.5378 30.3208L29.7338 32.8537C29.7936 36.104 28.58 39.079 26.3552 41.0874C21.9391 45.1414 14.7976 44.3319 10.4161 39.3468C6.03428 34.3615 6.08308 26.9951 10.5317 22.9778L16.8823 17.243L14.4553 14.4452C12.5012 12.1923 11.8966 9.10948 12.8508 6.4982L14.1654 3.04316L14.3982 2.43643C5.9866 6.46185 0.176697 15.0524 0.176697 25C0.176697 38.8071 11.3696 50 25.1767 50C38.9838 50 50.1767 38.8071 50.1767 25C50.1767 11.1929 38.9838 0 25.1767 0C22.6513 0 20.2134 0.374449 17.9154 1.07085L16.6733 4.27754L15.3587 7.73264C14.7348 9.33283 15.1281 11.3105 16.3572 12.7276L18.7842 15.5255L25.1992 9.73246ZM19.9054 32.5914L20.9372 31.66C21.4855 31.1652 21.4949 30.3145 20.9589 29.6966C20.4229 29.0789 19.5945 28.9852 19.0463 29.48L18.0147 30.4115L17.006 29.2487C16.4702 28.631 15.6414 28.5371 15.0933 29.032C14.5453 29.5269 14.536 30.3776 15.0718 30.9953L16.0805 32.1581L15.0489 33.0896C14.5009 33.5845 14.4916 34.4354 15.0274 35.0531C15.5632 35.6707 16.392 35.7646 16.9402 35.2698L17.972 34.3384L18.9798 35.5008C19.5158 36.1187 20.3451 36.2128 20.8924 35.7176C21.4406 35.2228 21.4501 34.372 20.9141 33.7543L19.9054 32.5914ZM31.9704 23.9004C33.0415 25.1356 34.8271 25.3381 35.9226 24.3481C37.0191 23.3585 37.0385 21.5258 35.9674 20.2906C34.8954 19.055 33.1107 18.8529 32.0142 19.8424C30.9187 20.8324 30.8984 22.6649 31.9704 23.9004ZM31.475 16.636C32.547 17.8716 34.3317 18.0737 35.4282 17.0841C36.5237 16.0942 36.544 14.2618 35.472 13.0262C34.401 11.791 32.6153 11.5885 31.5198 12.5784C30.4233 13.568 30.4039 15.4009 31.475 16.636Z" fill="white"/>
<path d="M68.344 25.336H71.896V32.152C70.984 32.84 69.928 33.368 68.728 33.736C67.528 34.104 66.32 34.288 65.104 34.288C63.36 34.288 61.792 33.92 60.4 33.184C59.008 32.432 57.912 31.4 57.112 30.088C56.328 28.76 55.936 27.264 55.936 25.6C55.936 23.936 56.328 22.448 57.112 21.136C57.912 19.808 59.016 18.776 60.424 18.04C61.832 17.288 63.416 16.912 65.176 16.912C66.648 16.912 67.984 17.16 69.184 17.656C70.384 18.152 71.392 18.872 72.208 19.816L69.712 22.12C68.512 20.856 67.064 20.224 65.368 20.224C64.296 20.224 63.344 20.448 62.512 20.896C61.68 21.344 61.032 21.976 60.568 22.792C60.104 23.608 59.872 24.544 59.872 25.6C59.872 26.64 60.104 27.568 60.568 28.384C61.032 29.2 61.672 29.84 62.488 30.304C63.32 30.752 64.264 30.976 65.32 30.976C66.44 30.976 67.448 30.736 68.344 30.256V25.336ZM86.5716 30.4H78.7716L77.2836 34H73.2996L80.7876 17.2H84.6276L92.1396 34H88.0596L86.5716 30.4ZM85.3476 27.448L82.6836 21.016L80.0196 27.448H85.3476ZM109.171 34L109.147 23.92L104.203 32.224H102.451L97.5306 24.136V34H93.8826V17.2H97.0986L103.387 27.64L109.579 17.2H112.771L112.819 34H109.171ZM129.812 30.88V34H116.805V17.2H129.501V20.32H120.669V23.968H128.469V26.992H120.669V30.88H129.812Z" fill="url(#paint0_linear)"/>
<path d="M138.426 34.288C137.098 34.288 135.81 34.112 134.562 33.76C133.33 33.392 132.338 32.92 131.586 32.344L132.906 29.416C133.626 29.944 134.482 30.368 135.474 30.688C136.466 31.008 137.458 31.168 138.45 31.168C139.554 31.168 140.37 31.008 140.898 30.688C141.426 30.352 141.69 29.912 141.69 29.368C141.69 28.968 141.53 28.64 141.21 28.384C140.906 28.112 140.506 27.896 140.01 27.736C139.53 27.576 138.874 27.4 138.042 27.208C136.762 26.904 135.714 26.6 134.898 26.296C134.082 25.992 133.378 25.504 132.786 24.832C132.21 24.16 131.922 23.264 131.922 22.144C131.922 21.168 132.186 20.288 132.714 19.504C133.242 18.704 134.034 18.072 135.09 17.608C136.162 17.144 137.466 16.912 139.002 16.912C140.074 16.912 141.122 17.04 142.146 17.296C143.17 17.552 144.066 17.92 144.834 18.4L143.634 21.352C142.082 20.472 140.53 20.032 138.978 20.032C137.89 20.032 137.082 20.208 136.554 20.56C136.042 20.912 135.786 21.376 135.786 21.952C135.786 22.528 136.082 22.96 136.674 23.248C137.282 23.52 138.202 23.792 139.434 24.064C140.714 24.368 141.762 24.672 142.578 24.976C143.394 25.28 144.09 25.76 144.666 26.416C145.258 27.072 145.554 27.96 145.554 29.08C145.554 30.04 145.282 30.92 144.738 31.72C144.21 32.504 143.41 33.128 142.338 33.592C141.266 34.056 139.962 34.288 138.426 34.288ZM151.456 20.368H146.08V17.2H160.72V20.368H155.344V34H151.456V20.368ZM170.714 34.288C168.97 34.288 167.394 33.912 165.986 33.16C164.594 32.408 163.498 31.376 162.698 30.064C161.914 28.736 161.522 27.248 161.522 25.6C161.522 23.952 161.914 22.472 162.698 21.16C163.498 19.832 164.594 18.792 165.986 18.04C167.394 17.288 168.97 16.912 170.714 16.912C172.458 16.912 174.026 17.288 175.418 18.04C176.81 18.792 177.906 19.832 178.706 21.16C179.506 22.472 179.906 23.952 179.906 25.6C179.906 27.248 179.506 28.736 178.706 30.064C177.906 31.376 176.81 32.408 175.418 33.16C174.026 33.912 172.458 34.288 170.714 34.288ZM170.714 30.976C171.706 30.976 172.602 30.752 173.402 30.304C174.202 29.84 174.826 29.2 175.274 28.384C175.738 27.568 175.97 26.64 175.97 25.6C175.97 24.56 175.738 23.632 175.274 22.816C174.826 22 174.202 21.368 173.402 20.92C172.602 20.456 171.706 20.224 170.714 20.224C169.722 20.224 168.826 20.456 168.026 20.92C167.226 21.368 166.594 22 166.13 22.816C165.682 23.632 165.458 24.56 165.458 25.6C165.458 26.64 165.682 27.568 166.13 28.384C166.594 29.2 167.226 29.84 168.026 30.304C168.826 30.752 169.722 30.976 170.714 30.976ZM190.868 34.288C189.156 34.288 187.604 33.92 186.212 33.184C184.836 32.432 183.748 31.4 182.948 30.088C182.164 28.76 181.772 27.264 181.772 25.6C181.772 23.936 182.164 22.448 182.948 21.136C183.748 19.808 184.836 18.776 186.212 18.04C187.604 17.288 189.164 16.912 190.892 16.912C192.348 16.912 193.66 17.168 194.828 17.68C196.012 18.192 197.004 18.928 197.804 19.888L195.308 22.192C194.172 20.88 192.764 20.224 191.084 20.224C190.044 20.224 189.116 20.456 188.3 20.92C187.484 21.368 186.844 22 186.38 22.816C185.932 23.632 185.708 24.56 185.708 25.6C185.708 26.64 185.932 27.568 186.38 28.384C186.844 29.2 187.484 29.84 188.3 30.304C189.116 30.752 190.044 30.976 191.084 30.976C192.764 30.976 194.172 30.312 195.308 28.984L197.804 31.288C197.004 32.264 196.012 33.008 194.828 33.52C193.644 34.032 192.324 34.288 190.868 34.288ZM206.55 27.4L204.294 29.752V34H200.43V17.2H204.294V25.048L211.734 17.2H216.054L209.094 24.688L216.462 34H211.926L206.55 27.4Z" fill="white"/>
<defs>
<linearGradient id="paint0_linear" x1="136" y1="11" x2="136" y2="40" gradientUnits="userSpaceOnUse">
<stop stop-color="#FCDDEC"/>
<stop offset="1" stop-color="#EF5DA8"/>
</linearGradient>
</defs>
</svg>
