<svg width="79" height="79" viewBox="0 0 79 79" fill="none" xmlns="http://www.w3.org/2000/svg">
<g clip-path="url(#clip0)">
<path d="M70.4897 69.2741L60.4959 51.9643C62.1535 50.5685 63.299 48.5833 63.605 46.3338C63.8129 44.8042 64.5996 43.4414 65.8203 42.4965C68.9846 40.0471 70.1361 35.7497 68.6206 32.0461C68.0358 30.6174 68.0358 29.0438 68.6206 27.6152C70.1361 23.9115 68.9846 19.6143 65.8203 17.1648C64.5996 16.2199 63.8127 14.8571 63.605 13.3275C63.0656 9.36236 59.9197 6.21638 55.9546 5.67734C54.4251 5.46932 53.0623 4.68259 52.1175 3.46192C49.6679 0.297425 45.371 -0.853959 41.667 0.661621C40.2383 1.24634 38.6647 1.24634 37.2361 0.661621C33.5327 -0.854114 29.2352 0.297425 26.7857 3.46192C25.8408 4.68259 24.478 5.46932 22.9484 5.67734C18.9831 6.21654 15.8373 9.36236 15.2982 13.3276C15.0902 14.8572 14.3035 16.22 13.0828 17.1649C9.91832 19.6145 8.76693 23.9118 10.2825 27.6154C10.8672 29.0439 10.8672 30.6177 10.2825 32.0462C8.76678 35.7497 9.91832 40.0471 13.0828 42.4966C14.3035 43.4415 15.0902 44.8043 15.2982 46.3338C15.6081 48.613 16.7803 50.6202 18.4731 52.0185L8.51045 69.2741C8.19842 69.8147 8.24255 70.49 8.62265 70.9851C9.00258 71.4802 9.64317 71.6979 10.2464 71.5363L18.9302 69.2095L21.247 77.8559C21.4086 78.4588 21.9173 78.905 22.5362 78.9865C22.6038 78.9954 22.6712 78.9997 22.738 78.9997C23.284 78.9997 23.796 78.7096 24.074 78.2281L34.8242 59.6083C35.6394 59.5205 36.4511 59.3209 37.236 58.9997C38.6647 58.4149 40.2384 58.4149 41.6668 58.9997C42.4852 59.3347 43.3327 59.5388 44.1828 59.6203L54.926 78.2281C55.2041 78.7098 55.716 78.9997 56.262 78.9997C56.3289 78.9997 56.3962 78.9954 56.464 78.9865C57.0828 78.905 57.5916 78.4588 57.7532 77.8559L60.0701 69.2095L68.7539 71.5363C69.3564 71.6979 69.9976 71.4805 70.3775 70.9851C70.7574 70.49 70.8017 69.8147 70.4897 69.2741ZM23.2638 73.4585L21.5118 66.9201C21.4058 66.5248 21.1473 66.1877 20.7928 65.9831C20.4383 65.7785 20.0174 65.7231 19.6218 65.8289L13.0461 67.5908L21.1545 53.5466C21.7278 53.7517 22.328 53.8997 22.9482 53.9841C24.4778 54.1921 25.8406 54.9788 26.7855 56.1995C27.9848 57.7487 29.6272 58.8143 31.4258 59.3217L23.2638 73.4585ZM36.0668 56.1433C33.6426 57.1356 30.8297 56.3818 29.2261 54.3105C27.7826 52.4457 25.7007 51.2435 23.3639 50.9259C20.7684 50.573 18.709 48.5137 18.3562 45.9181C18.0385 43.5814 16.8365 41.4996 14.9717 40.0559C12.9003 38.4525 12.1466 35.6394 13.1387 33.2152C14.032 31.0326 14.032 28.6288 13.1387 26.4462C12.1466 24.022 12.9003 21.2089 14.9717 19.6055C16.8365 18.162 18.0385 16.0802 18.3562 13.7434C18.7092 11.1478 20.7684 9.08844 23.3639 8.73551C25.7007 8.41792 27.7826 7.21591 29.2261 5.35111C30.357 3.89016 32.0889 3.08476 33.8624 3.08476C34.6036 3.08476 35.3522 3.22565 36.0667 3.51809C38.2494 4.4113 40.6534 4.4113 42.8358 3.51809C45.2598 2.52581 48.0731 3.27967 49.6765 5.35111C51.12 7.21591 53.2018 8.41792 55.5384 8.73551C58.1339 9.08844 60.1933 11.1477 60.5462 13.7434C60.8639 16.0802 62.066 18.162 63.9308 19.6055C66.0022 21.2089 66.7559 24.0219 65.7638 26.4462C64.8706 28.6288 64.8706 31.0326 65.7638 33.2152C66.7559 35.6394 66.002 38.4525 63.9308 40.0559C62.066 41.4994 60.8639 43.5812 60.5462 45.9179C60.1933 48.5136 58.1339 50.573 55.5385 50.9258C53.2016 51.2434 51.1199 52.4454 49.6763 54.3103C48.0728 56.3819 45.2598 57.1355 42.8358 56.1432C40.6532 55.2501 38.2495 55.2501 36.0668 56.1433ZM59.3782 65.8289C58.5545 65.6081 57.7089 66.097 57.4882 66.9201L55.736 73.4585L47.5601 59.2973C49.326 58.7807 50.9365 57.7248 52.1174 56.1995C53.0621 54.9787 54.4249 54.192 55.9544 53.9841C56.6036 53.8958 57.2305 53.7364 57.8279 53.5162L65.9537 67.5908L59.3782 65.8289Z" fill="#3A3A3A"/>
<path d="M32.4384 24.1224L27.6371 28.9237C27.3477 29.213 27.1851 29.6056 27.1851 30.0149C27.1851 30.4241 27.3477 30.8167 27.6371 31.1061L36.6421 40.1113C36.9315 40.4006 37.3241 40.5633 37.7333 40.5633C38.1426 40.5633 38.5352 40.4006 38.8245 40.1113L51.363 27.5727C51.9657 26.9701 51.9657 25.993 51.363 25.3903L46.5618 20.589C46.2723 20.2996 45.8799 20.137 45.4706 20.137C45.0614 20.137 44.6688 20.2996 44.3794 20.589L37.7335 27.2351L34.6211 24.1226C34.3318 23.8332 33.9392 23.6706 33.5299 23.6706C33.1204 23.6704 32.7278 23.8331 32.4384 24.1224ZM36.642 30.5087C36.9313 30.798 37.3239 30.9607 37.7332 30.9607C38.1424 30.9607 38.535 30.798 38.8244 30.5087L45.4703 23.8626L48.0893 26.4815L37.7332 36.8377L30.9107 30.015L33.5296 27.3962L36.642 30.5087Z" fill="#EE53BA"/>
<path d="M59.5616 30.3502C59.5616 26.2508 58.3331 22.3082 56.009 18.9487C53.7394 15.6683 50.5868 13.1598 46.8921 11.6947C46.0995 11.3806 45.2029 11.7681 44.8887 12.5604C44.5745 13.3527 44.9622 14.2496 45.7543 14.5638C52.2671 17.1464 56.4754 23.3429 56.4754 30.3502C56.4754 39.7103 48.8603 47.3254 39.5001 47.3254C30.14 47.3254 22.5249 39.7103 22.5249 30.3502C22.5249 23.3428 26.7332 17.1462 33.246 14.5637C34.0383 14.2495 34.4259 13.3526 34.1117 12.5603C33.7975 11.768 32.9005 11.3803 32.1084 11.6945C28.4135 13.1598 25.2608 15.6681 22.9913 18.9485C20.667 22.3081 19.4385 26.2507 19.4385 30.35C19.4385 41.412 28.4381 50.4117 39.5001 50.4117C50.5621 50.4118 59.5616 41.4122 59.5616 30.3502Z" fill="#3A3A3A"/>
<path d="M39.5 13.3742C39.9059 13.3742 40.304 13.2107 40.5909 12.9221C40.8779 12.6351 41.0432 12.2384 41.0432 11.831C41.0432 11.4252 40.8781 11.027 40.5909 10.74C40.304 10.453 39.9059 10.2878 39.5 10.2878C39.0941 10.2878 38.696 10.453 38.4089 10.74C38.1219 11.027 37.9568 11.4252 37.9568 11.831C37.9568 12.2384 38.1219 12.6351 38.4089 12.9221C38.696 13.2107 39.0941 13.3742 39.5 13.3742Z" fill="#3A3A3A"/>
</g>
<defs>
<clipPath id="clip0">
<rect width="79" height="79" fill="white"/>
</clipPath>
</defs>
</svg>
