<svg width="70" height="70" fill="none" xmlns="http://www.w3.org/2000/svg"><g clip-path="url(#clip0)"><path d="M66.788 10.715L54.606 5.64a5.504 5.504 0 00-4.205 0l-5.849 2.436a1.026 1.026 0 00.789 1.893l5.848-2.436a3.44 3.44 0 012.628 0L66 12.607c1.184.495 1.95 1.606 1.95 2.832V59.29c0 1.705-1.464 3.093-3.265 3.093h-1.662a1.025 1.025 0 100 2.05h1.662c2.931 0 5.316-2.307 5.316-5.143V15.44c0-2.056-1.26-3.91-3.212-4.724zm-8.235 51.669h-17.23a4.383 4.383 0 001.098-2.912 4.39 4.39 0 00-1.038-2.839 4.42 4.42 0 001.12-.814 4.382 4.382 0 001.29-3.119 4.39 4.39 0 00-1.116-2.929c.344-.194.664-.435.95-.722a4.381 4.381 0 001.292-3.12c0-1.12-.42-2.143-1.11-2.922a4.387 4.387 0 002.257-3.85 4.416 4.416 0 00-4.41-4.411h-4.599V15.439c0-1.226.766-2.337 1.95-2.831l1.865-.777a1.025 1.025 0 10-.788-1.893l-1.866.777c-1.95.814-3.211 2.668-3.211 4.724v19.307h-4.285c1.427-4.508 1.306-9.214-.36-14.674a3.96 3.96 0 00-1.455-2.049 4.002 4.002 0 00-2.383-.78 3.981 3.981 0 00-2.913 1.252 3.98 3.98 0 00-1.098 2.973c.32 6.166-2.523 8.288-6.46 11.225-1.296.967-2.712 2.025-4.104 3.322V34.67c0-.567-.459-1.026-1.025-1.026H1.025c-.566 0-1.025.46-1.025 1.026v29.081c0 .567.459 1.026 1.025 1.026h9.899c.566 0 1.025-.46 1.025-1.026v-2.58c1.948.186 3.37.574 4.752 1.633a5.21 5.21 0 003.15 1.078h18.083a5.46 5.46 0 002.388.551h18.23a1.025 1.025 0 100-2.05zm-40.604-1.207c-1.934-1.481-4-1.893-6-2.066V47.139a1.025 1.025 0 10-2.05 0v15.589H2.05v-27.03h7.847v6.973a1.025 1.025 0 102.051 0v-3.742c1.716-1.893 3.552-3.264 5.331-4.591 3.939-2.94 7.659-5.715 7.281-12.976a1.946 1.946 0 01.538-1.454 1.948 1.948 0 011.426-.613 1.963 1.963 0 011.877 1.377c1.695 5.562 1.669 10.242-.084 14.728a1.025 1.025 0 00.955 1.398h12.383a2.363 2.363 0 011.67 4.03 2.35 2.35 0 01-1.67.691h-4.213a1.025 1.025 0 100 2.051h3.065a2.363 2.363 0 011.67 4.03 2.344 2.344 0 01-1.67.691h-3.065a1.025 1.025 0 100 2.05h1.94a2.363 2.363 0 011.67 4.03 2.345 2.345 0 01-1.67.692h-3.065a1.025 1.025 0 100 2.05h1.692a2.362 2.362 0 011.67 4.03c-.416.415-1.074.68-1.566.689l-18.264.002c-.675 0-1.35-.233-1.901-.656z" fill="#3A3A3A"/><path d="M56.204 15.894a3.912 3.912 0 00-3.908-3.908 3.912 3.912 0 00-3.907 3.908 3.912 3.912 0 003.907 3.908 3.912 3.912 0 003.908-3.908zm-5.765 0c0-1.024.833-1.857 1.857-1.857s1.857.833 1.857 1.857a1.859 1.859 0 01-1.857 1.857 1.859 1.859 0 01-1.857-1.857z" fill="#3A3A3A"/><path d="M52.937 50.882h-1.84a1.759 1.759 0 01-1.756-1.757 1.025 1.025 0 10-2.05 0 3.811 3.811 0 003.701 3.805v2.27a1.025 1.025 0 102.05 0v-2.27a3.811 3.811 0 003.702-3.805v-1.42a3.023 3.023 0 00-2.094-2.882l-4.632-1.505a.977.977 0 01-.677-.931v-2.033c0-.786.64-1.427 1.427-1.427h2.5c.786 0 1.426.64 1.426 1.427a1.025 1.025 0 102.05 0 3.482 3.482 0 00-3.477-3.477h-.224V34.61a1.025 1.025 0 10-2.051 0v2.267h-.224a3.482 3.482 0 00-3.478 3.477v2.033c0 1.317.842 2.475 2.095 2.882l4.631 1.505a.977.977 0 01.678.931v1.42c0 .969-.788 1.757-1.757 1.757z" fill="#EE53BA"/></g><defs><clipPath id="clip0"><path fill="#fff" d="M0 0h70v70H0z"/></clipPath></defs></svg>