<svg width="35" height="36" fill="none" xmlns="http://www.w3.org/2000/svg"><g clip-path="url(#clip0)" fill="#fff"><path d="M8.471 5.804c-.078-.278-.453-.561-.742-.561H1.52a1.012 1.012 0 110-2.023h6.21c1.186 0 2.367.893 2.69 2.034l1.677 5.938c.192-.053.394-.084.604-.084h20.066c.638 0 1.245.265 1.663.727.418.461.622 1.09.56 1.726l-.936 9.486a2.522 2.522 0 01-2.488 2.255H15.99c-1.19 0-2.367-.9-2.678-2.05l-1.95-7.215L8.47 5.804zm6.796 16.92c.074.275.44.554.724.554h15.574a.514.514 0 00.474-.43l.936-9.485c.008-.07-.008-.13-.045-.17a.215.215 0 00-.164-.062H12.7l-.026.001a.306.306 0 00.006.026l2.587 9.566zm13.345 3.73A3.15 3.15 0 0131.76 29.6a3.15 3.15 0 01-3.147 3.147 3.15 3.15 0 01-3.146-3.147 3.15 3.15 0 013.146-3.146zm0 4.27A1.125 1.125 0 1027.49 29.6c0 .619.504 1.123 1.123 1.123zm-9.977-4.27a3.15 3.15 0 013.147 3.146 3.15 3.15 0 01-3.147 3.147A3.15 3.15 0 0115.49 29.6a3.15 3.15 0 013.146-3.146zm0 4.27a1.125 1.125 0 000-2.247 1.124 1.124 0 000 2.247z"/><path d="M.674 11.445h7.303a.674.674 0 110 1.35H.674a.674.674 0 010-1.35zm2.026 3.14h6.492a.674.674 0 110 1.348H2.699a.674.674 0 010-1.348zm1.754 3.139h5.548a.674.674 0 010 1.349H4.454a.674.674 0 010-1.35z"/></g><defs><clipPath id="clip0"><path fill="#fff" transform="matrix(-1 0 0 1 35 .483)" d="M0 0h35v35H0z"/></clipPath></defs></svg>