<svg width="76" height="74" fill="none" xmlns="http://www.w3.org/2000/svg"><path d="M70.906 26.555a4.967 4.967 0 00-4.961-4.961 4.927 4.927 0 00-3.508 1.453l-3.241 3.242-3.602 3.602V19.319c3.704-.534 6.562-3.72 6.562-7.569 0-4.222-3.434-7.656-7.656-7.656H10.75c-4.222 0-7.656 3.434-7.656 7.656v54.688c0 .603.49 1.093 1.094 1.093h5.468v3.281c0 .604.49 1.094 1.094 1.094H54.5c.604 0 1.094-.49 1.094-1.094v-26.89L66.21 33.305l1.123-1.124a14.656 14.656 0 01-4.028 7.498l-5.203 5.203 1.546 1.546 5.203-5.203c3.104-3.104 4.84-7.203 4.942-11.577a4.904 4.904 0 001.112-3.093zm-6.922-1.961a2.756 2.756 0 011.961-.813 2.777 2.777 0 012.774 2.774c0 .74-.289 1.437-.813 1.961l-2.469 2.469-3.922-3.922 2.469-2.47zm-4.015 4.015l1.188 1.188L47.39 43.563l-1.188-1.188 13.766-13.766zM33.956 57.472l2.25-4.5 3.323 3.322-4.501 2.25-1.072-1.072zm3.497-6.347l7.203-7.203 3.922 3.922-7.203 7.203-3.922-3.922zM54.5 6.281a5.475 5.475 0 015.469 5.469 5.475 5.475 0 01-5.469 5.469H16.098a7.63 7.63 0 000-10.938H54.5zM11.844 17.108v-3.17c0-.603.49-1.094 1.094-1.094h3.17a5.486 5.486 0 01-4.264 4.264zM5.28 65.344V11.75a5.475 5.475 0 015.469-5.469 5.48 5.48 0 015.358 4.375h-3.17a3.285 3.285 0 00-3.282 3.281v51.407H5.281zm48.125 4.375H11.844V19.406h41.562v12.672l-4.828 4.828h-32.36v2.188h30.173l-2.188 2.187H16.22v2.188h25.797l-6.883 6.883a1.07 1.07 0 00-.193.29l-.012-.007-3.28 6.563c-.21.42-.129.93.205 1.262l.32.321-2.509 2.508 1.547 1.547 2.508-2.508.32.32a1.093 1.093 0 001.262.206l6.563-3.281-.007-.012a1.07 1.07 0 00.29-.193l8.75-8.75 2.51-2.509v23.61zm-3.281-23.422l-1.188-1.188 13.766-13.766 1.188 1.188-13.766 13.766z" fill="#3A3A3A"/><path d="M16.219 23.781H49.03v2.188H16.22V23.78zm0 4.375H49.03v2.188H16.22v-2.188zm0 4.375H49.03v2.188H16.22V32.53z" fill="#3A3A3A"/><path d="M20.219 55.781H32.25v2.188H20.219V55.78zm-4 7.375H49.03v2.188H16.22v-2.188z" fill="#EE53BA"/></svg>