<svg width="200" height="50" xmlns="http://www.w3.org/2000/svg"><defs><linearGradient y2="1" x2=".5" y1="0" x1=".5" id="a"><stop stop-opacity="0" stop-color="#F91CAF"/><stop stop-color="#EE53BA" offset="1"/></linearGradient><linearGradient y2="1.439" x2="1.061" y1="-.336" x1="1.061" id="b"><stop stop-color="#fff"/><stop stop-color="#E60097" offset="1"/></linearGradient></defs><circle fill="#fff" r="25" cy="25" cx="25.177"/><path transform="rotate(21.933 13.686 14.77)" fill="url(#a)" d="M13.686 14.769h32.025v14.892H13.686z"/><path d="M43.963 28.426c-.653-3.047-2.514-5.542-5.17-6.9l-7.552-3.86 1.707-3.224c.865-1.633 2.536-2.694 4.219-2.685l3.622-.011L41.038 9l-3.622.01c-2.724.045-5.332 1.691-6.706 4.287l-1.708 3.224-7.475-3.82c-5.237-2.678-11.992-.119-15.014 5.679-3.022 5.797-1.255 12.66 4.004 15.294 2.618 1.339 5.766 1.405 8.718.2l3.301 1.688c1.328 6.052 7.19 9.369 13.107 7.392 5.917-1.977 9.648-8.476 8.32-14.528zm-26.725-3.074l-1.214-.621-.71 1.34c-.377.712-1.158 1.004-1.803.674-.645-.33-.85-1.126-.474-1.838l.71-1.34-1.214-.62c-.645-.33-.85-1.127-.474-1.838.377-.712 1.159-1.004 1.804-.675l1.214.621.71-1.34c.377-.712 1.158-1.004 1.803-.674.645.33.85 1.126.474 1.838l-.71 1.34 1.214.62c.645.33.85 1.127.474 1.839-.377.712-1.159 1.004-1.804.674zm11.95 11.216c-1.29-.66-1.732-2.375-.978-3.798.754-1.424 2.437-2.053 3.727-1.394 1.29.66 1.732 2.375.978 3.799-.754 1.423-2.437 2.053-3.727 1.393zm6.471-3.023c-1.29-.66-1.732-2.375-.978-3.8.754-1.422 2.437-2.052 3.727-1.392 1.29.659 1.732 2.375.978 3.798-.753 1.424-2.437 2.053-3.727 1.394z"/><path fill="url(#b)" d="M64.936 26.723h4.2v6.96c-.96.688-2.064 1.216-3.312 1.584a13.18 13.18 0 01-3.744.552c-1.76 0-3.344-.368-4.752-1.104-1.408-.752-2.512-1.792-3.312-3.12-.8-1.328-1.2-2.832-1.2-4.512 0-1.68.4-3.184 1.2-4.512.8-1.328 1.912-2.36 3.336-3.096 1.424-.752 3.032-1.128 4.824-1.128 1.568 0 2.976.264 4.224.792 1.248.528 2.288 1.288 3.12 2.28l-3.024 2.736c-1.136-1.248-2.496-1.872-4.08-1.872-1.44 0-2.6.44-3.48 1.32-.88.864-1.32 2.024-1.32 3.48 0 .928.2 1.76.6 2.496.4.72.96 1.288 1.68 1.704.72.4 1.544.6 2.472.6.912 0 1.768-.184 2.568-.552v-4.608zm12.54-4.464c2.16 0 3.809.496 4.945 1.488 1.136.976 1.704 2.48 1.704 4.512v7.224h-4.248v-1.68c-.656 1.264-1.936 1.896-3.84 1.896-1.008 0-1.88-.176-2.616-.528-.736-.352-1.296-.824-1.68-1.416-.368-.608-.552-1.296-.552-2.064 0-1.232.472-2.184 1.416-2.856.944-.688 2.4-1.032 4.368-1.032h2.592c-.08-1.376-1-2.064-2.76-2.064a6.11 6.11 0 00-1.896.312c-.64.192-1.184.464-1.632.816l-1.536-3.096c.72-.48 1.592-.848 2.616-1.104 1.04-.272 2.08-.408 3.12-.408zm-.167 10.56c.528 0 .992-.128 1.392-.384.4-.256.688-.632.864-1.128v-1.128h-1.968c-1.328 0-1.992.44-1.992 1.32 0 .4.152.72.456.96.304.24.72.36 1.248.36zm26.638-10.56c1.6 0 2.872.48 3.816 1.44.96.96 1.44 2.408 1.44 4.344v7.44h-4.56v-6.696c0-.912-.176-1.584-.528-2.016-.336-.432-.816-.648-1.44-.648-.688 0-1.24.24-1.656.72-.416.48-.624 1.208-.624 2.184v6.456h-4.56v-6.696c0-1.776-.656-2.664-1.968-2.664-.704 0-1.264.24-1.68.72-.416.48-.624 1.208-.624 2.184v6.456h-4.56V22.475h4.344v1.368a4.472 4.472 0 011.704-1.176 5.766 5.766 0 012.184-.408c.912 0 1.728.168 2.448.504.72.336 1.304.848 1.752 1.536a5.04 5.04 0 011.944-1.512 6.197 6.197 0 012.568-.528zm21.618 6.744c0 .032-.024.408-.072 1.128h-9.456c.192.672.56 1.192 1.104 1.56.56.352 1.256.528 2.088.528.624 0 1.16-.088 1.608-.264.464-.176.928-.464 1.392-.864l2.4 2.496c-1.264 1.408-3.112 2.112-5.544 2.112-1.52 0-2.856-.288-4.008-.864-1.152-.576-2.048-1.376-2.688-2.4-.624-1.024-.936-2.184-.936-3.48 0-1.28.304-2.424.912-3.432a6.514 6.514 0 012.568-2.4c1.088-.576 2.312-.864 3.672-.864 1.296 0 2.472.272 3.528.816a5.936 5.936 0 012.496 2.328c.624 1.008.936 2.208.936 3.6zm-6.936-3.504c-.704 0-1.296.2-1.776.6-.464.4-.76.944-.888 1.632h5.328c-.128-.688-.432-1.232-.912-1.632-.464-.4-1.048-.6-1.752-.6z"/><path fill="#fff" d="M133.787 35.819c-1.36 0-2.68-.168-3.96-.504-1.28-.336-2.32-.784-3.12-1.344l1.56-3.504c.752.496 1.624.896 2.616 1.2a9.958 9.958 0 002.928.456c1.824 0 2.736-.456 2.736-1.368 0-.48-.264-.832-.792-1.056-.512-.24-1.344-.488-2.496-.744-1.264-.272-2.32-.56-3.168-.864a5.438 5.438 0 01-2.184-1.512c-.608-.688-.912-1.616-.912-2.784 0-1.024.28-1.944.84-2.76.56-.832 1.392-1.488 2.496-1.968 1.12-.48 2.488-.72 4.104-.72 1.104 0 2.192.128 3.264.384 1.072.24 2.016.6 2.832 1.08l-1.464 3.528c-1.6-.864-3.152-1.296-4.656-1.296-.944 0-1.632.144-2.064.432-.432.272-.648.632-.648 1.08 0 .448.256.784.768 1.008.512.224 1.336.456 2.472.696 1.28.272 2.336.568 3.168.888a5.23 5.23 0 012.184 1.488c.624.672.936 1.592.936 2.76 0 1.008-.28 1.92-.84 2.736-.56.816-1.4 1.472-2.52 1.968-1.12.48-2.48.72-4.08.72zm18.395-.864c-.384.24-.856.424-1.416.552a7.636 7.636 0 01-1.752.192c-1.696 0-3-.416-3.912-1.248-.912-.832-1.368-2.072-1.368-3.72v-4.368h-1.896v-3.408h1.896v-3.384h4.56v3.384h2.976v3.408h-2.976v4.32c0 .464.12.832.36 1.104.256.256.592.384 1.008.384.528 0 .992-.136 1.392-.408l1.128 3.192zm7.912.744c-1.392 0-2.648-.288-3.768-.864-1.12-.576-2-1.376-2.64-2.4-.624-1.024-.936-2.184-.936-3.48 0-1.28.312-2.432.936-3.456a6.474 6.474 0 012.616-2.376c1.12-.576 2.384-.864 3.792-.864s2.672.288 3.792.864c1.12.56 1.992 1.352 2.616 2.376.624 1.008.936 2.16.936 3.456 0 1.296-.312 2.456-.936 3.48-.624 1.024-1.496 1.824-2.616 2.4-1.12.576-2.384.864-3.792.864zm0-3.624c.8 0 1.456-.272 1.968-.816.512-.56.768-1.328.768-2.304 0-.96-.256-1.712-.768-2.256-.512-.544-1.168-.816-1.968-.816s-1.456.272-1.968.816c-.512.544-.768 1.296-.768 2.256 0 .976.256 1.744.768 2.304.512.544 1.168.816 1.968.816zm16.104 3.624c-1.44 0-2.728-.288-3.864-.864-1.136-.576-2.024-1.376-2.664-2.4-.624-1.024-.936-2.184-.936-3.48 0-1.296.312-2.448.936-3.456.64-1.024 1.528-1.816 2.664-2.376 1.136-.576 2.424-.864 3.864-.864 1.472 0 2.744.32 3.816.96 1.072.624 1.832 1.496 2.28 2.616l-3.528 1.8c-.592-1.168-1.456-1.752-2.592-1.752-.816 0-1.496.272-2.04.816-.528.544-.792 1.296-.792 2.256 0 .976.264 1.744.792 2.304.544.544 1.224.816 2.04.816 1.136 0 2-.584 2.592-1.752l3.528 1.8c-.448 1.12-1.208 2-2.28 2.64-1.072.624-2.344.936-3.816.936zm13.67-4.776l-1.344 1.368v3.192h-4.56V17.675h4.56v9.336l4.656-4.536h5.4l-5.4 5.568 5.856 7.44h-5.52l-3.648-4.56z"/></svg>