<svg width="217" height="50" fill="none" xmlns="http://www.w3.org/2000/svg"><path fill-rule="evenodd" clip-rule="evenodd" d="M25.2 9.732c2.256-2.037 5.298-2.905 8.42-2.42 6.214.934 11 6.85 10.707 13.205-.292 6.356-5.576 10.737-11.79 9.804l-2.803 2.533c.06 3.25-1.154 6.225-3.379 8.233-4.416 4.054-11.557 3.245-15.939-1.74-4.382-4.986-4.333-12.352.116-16.37l6.35-5.734-2.427-2.798c-1.954-2.253-2.558-5.336-1.604-7.947l1.314-3.455.233-.607C5.987 6.462.177 15.052.177 25c0 13.807 11.193 25 25 25s25-11.193 25-25-11.193-25-25-25a25 25 0 00-7.262 1.07l-1.242 3.208-1.314 3.455c-.624 1.6-.23 3.577.998 4.995l2.427 2.797L25.2 9.732zm-5.295 22.86l1.032-.932c.548-.495.558-1.346.022-1.963-.536-.618-1.364-.712-1.913-.217l-1.031.931-1.009-1.162c-.536-.618-1.365-.712-1.913-.217s-.557 1.346-.021 1.963l1.009 1.163-1.032.932c-.548.494-.557 1.345-.022 1.963.536.618 1.365.712 1.913.217l1.032-.932 1.008 1.163c.536.618 1.365.712 1.912.217.549-.495.558-1.346.022-1.964l-1.009-1.163zM31.97 23.9c1.072 1.236 2.857 1.438 3.953.448 1.096-.99 1.115-2.822.044-4.057-1.072-1.236-2.856-1.438-3.953-.449-1.095.99-1.116 2.823-.044 4.058zm-.495-7.264c1.072 1.236 2.857 1.438 3.953.448 1.096-.99 1.116-2.822.044-4.058-1.071-1.235-2.857-1.438-3.952-.448-1.097.99-1.116 2.823-.045 4.058z" fill="#fff"/><path d="M68.344 25.336h3.552v6.816c-.912.688-1.968 1.216-3.168 1.584a12.3 12.3 0 01-3.624.552c-1.744 0-3.312-.368-4.704-1.104-1.392-.752-2.488-1.784-3.288-3.096-.784-1.328-1.176-2.824-1.176-4.488 0-1.664.392-3.152 1.176-4.464.8-1.328 1.904-2.36 3.312-3.096 1.408-.752 2.992-1.128 4.752-1.128 1.472 0 2.808.248 4.008.744a7.942 7.942 0 013.024 2.16l-2.496 2.304c-1.2-1.264-2.648-1.896-4.344-1.896-1.072 0-2.024.224-2.856.672a4.82 4.82 0 00-1.944 1.896c-.464.816-.696 1.752-.696 2.808 0 1.04.232 1.968.696 2.784a5.03 5.03 0 001.92 1.92c.832.448 1.776.672 2.832.672 1.12 0 2.128-.24 3.024-.72v-4.92zM86.572 30.4h-7.8L77.284 34H73.3l7.488-16.8h3.84L92.14 34h-4.08l-1.488-3.6zm-1.224-2.952l-2.664-6.432-2.664 6.432h5.328zM109.17 34l-.024-10.08-4.944 8.304h-1.752l-4.92-8.088V34h-3.648V17.2h3.216l6.288 10.44 6.192-10.44h3.192l.048 16.8h-3.648zm20.641-3.12V34h-13.007V17.2H129.5v3.12h-8.832v3.648h7.8v3.024h-7.8v3.888h9.143z" fill="url(#paint0_linear)"/><path d="M138.426 34.288c-1.328 0-2.616-.176-3.864-.528-1.232-.368-2.224-.84-2.976-1.416l1.32-2.928c.72.528 1.576.952 2.568 1.272.992.32 1.984.48 2.976.48 1.104 0 1.92-.16 2.448-.48.528-.336.792-.776.792-1.32 0-.4-.16-.728-.48-.984-.304-.272-.704-.488-1.2-.648-.48-.16-1.136-.336-1.968-.528-1.28-.304-2.328-.608-3.144-.912a5.199 5.199 0 01-2.112-1.464c-.576-.672-.864-1.568-.864-2.688 0-.976.264-1.856.792-2.64.528-.8 1.32-1.432 2.376-1.896 1.072-.464 2.376-.696 3.912-.696 1.072 0 2.12.128 3.144.384s1.92.624 2.688 1.104l-1.2 2.952c-1.552-.88-3.104-1.32-4.656-1.32-1.088 0-1.896.176-2.424.528-.512.352-.768.816-.768 1.392s.296 1.008.888 1.296c.608.272 1.528.544 2.76.816 1.28.304 2.328.608 3.144.912a5.113 5.113 0 012.088 1.44c.592.656.888 1.544.888 2.664 0 .96-.272 1.84-.816 2.64-.528.784-1.328 1.408-2.4 1.872-1.072.464-2.376.696-3.912.696zm13.03-13.92h-5.376V17.2h14.64v3.168h-5.376V34h-3.888V20.368zm19.258 13.92c-1.744 0-3.32-.376-4.728-1.128-1.392-.752-2.488-1.784-3.288-3.096-.784-1.328-1.176-2.816-1.176-4.464 0-1.648.392-3.128 1.176-4.44a8.452 8.452 0 013.288-3.12c1.408-.752 2.984-1.128 4.728-1.128 1.744 0 3.312.376 4.704 1.128a8.452 8.452 0 013.288 3.12c.8 1.312 1.2 2.792 1.2 4.44 0 1.648-.4 3.136-1.2 4.464-.8 1.312-1.896 2.344-3.288 3.096-1.392.752-2.96 1.128-4.704 1.128zm0-3.312c.992 0 1.888-.224 2.688-.672a4.909 4.909 0 001.872-1.92c.464-.816.696-1.744.696-2.784 0-1.04-.232-1.968-.696-2.784a4.744 4.744 0 00-1.872-1.896c-.8-.464-1.696-.696-2.688-.696-.992 0-1.888.232-2.688.696a4.907 4.907 0 00-1.896 1.896c-.448.816-.672 1.744-.672 2.784 0 1.04.224 1.968.672 2.784a5.08 5.08 0 001.896 1.92c.8.448 1.696.672 2.688.672zm20.154 3.312c-1.712 0-3.264-.368-4.656-1.104a8.555 8.555 0 01-3.264-3.096c-.784-1.328-1.176-2.824-1.176-4.488 0-1.664.392-3.152 1.176-4.464a8.323 8.323 0 013.264-3.096c1.392-.752 2.952-1.128 4.68-1.128 1.456 0 2.768.256 3.936.768a7.886 7.886 0 012.976 2.208l-2.496 2.304c-1.136-1.312-2.544-1.968-4.224-1.968-1.04 0-1.968.232-2.784.696a4.862 4.862 0 00-1.92 1.896c-.448.816-.672 1.744-.672 2.784 0 1.04.224 1.968.672 2.784a5.03 5.03 0 001.92 1.92c.816.448 1.744.672 2.784.672 1.68 0 3.088-.664 4.224-1.992l2.496 2.304a7.78 7.78 0 01-2.976 2.232c-1.184.512-2.504.768-3.96.768zM206.55 27.4l-2.256 2.352V34h-3.864V17.2h3.864v7.848l7.44-7.848h4.32l-6.96 7.488L216.462 34h-4.536l-5.376-6.6z" fill="#fff"/><defs><linearGradient id="paint0_linear" x1="136" y1="11" x2="136" y2="40" gradientUnits="userSpaceOnUse"><stop stop-color="#FCDDEC"/><stop offset="1" stop-color="#EF5DA8"/></linearGradient></defs></svg>