<svg width="79" height="79" fill="none" xmlns="http://www.w3.org/2000/svg"><g clip-path="url(#clip0)"><path d="M70.49 69.274l-9.994-17.31a8.94 8.94 0 003.109-5.63 5.815 5.815 0 012.215-3.838 8.962 8.962 0 002.8-10.45 5.815 5.815 0 010-4.43 8.96 8.96 0 00-2.8-10.451 5.814 5.814 0 01-2.215-3.837 8.962 8.962 0 00-7.65-7.65 5.815 5.815 0 01-3.837-2.216 8.961 8.961 0 00-10.451-2.8 5.815 5.815 0 01-4.43 0 8.961 8.961 0 00-10.451 2.8 5.816 5.816 0 01-3.838 2.215 8.961 8.961 0 00-7.65 7.65 5.816 5.816 0 01-2.215 3.838 8.962 8.962 0 00-2.8 10.45 5.815 5.815 0 010 4.431 8.961 8.961 0 002.8 10.45 5.816 5.816 0 012.215 3.838 8.94 8.94 0 003.175 5.684L8.51 69.275a1.543 1.543 0 001.736 2.262l8.684-2.326 2.317 8.646a1.543 1.543 0 002.827.372l10.75-18.62A8.867 8.867 0 0037.236 59a5.814 5.814 0 014.43 0 8.87 8.87 0 002.517.62l10.743 18.608a1.543 1.543 0 002.827-.372l2.317-8.646 8.684 2.326a1.543 1.543 0 001.736-2.262zm-47.226 4.184l-1.752-6.538a1.543 1.543 0 00-1.89-1.091l-6.576 1.762 8.108-14.044a8.875 8.875 0 001.794.437 5.816 5.816 0 013.837 2.215 8.92 8.92 0 004.64 3.123l-8.161 14.136zm12.803-17.315a5.866 5.866 0 01-6.84-1.833 8.884 8.884 0 00-5.863-3.384 5.866 5.866 0 01-5.008-5.008 8.885 8.885 0 00-3.384-5.862 5.866 5.866 0 01-1.833-6.84 8.884 8.884 0 000-6.77 5.866 5.866 0 011.833-6.84 8.884 8.884 0 003.384-5.863 5.866 5.866 0 015.008-5.007 8.884 8.884 0 005.862-3.385 5.865 5.865 0 016.84-1.833 8.885 8.885 0 006.77 0 5.866 5.866 0 016.84 1.833 8.884 8.884 0 005.862 3.385 5.866 5.866 0 015.008 5.007 8.884 8.884 0 003.385 5.862 5.866 5.866 0 011.833 6.841 8.885 8.885 0 000 6.77 5.866 5.866 0 01-1.833 6.84 8.884 8.884 0 00-3.385 5.862 5.866 5.866 0 01-5.008 5.008 8.884 8.884 0 00-5.862 3.384 5.865 5.865 0 01-6.84 1.833 8.885 8.885 0 00-6.77 0zm23.311 9.686a1.543 1.543 0 00-1.89 1.091l-1.752 6.538-8.176-14.16a8.92 8.92 0 004.557-3.099 5.814 5.814 0 013.837-2.215 8.871 8.871 0 001.874-.468l8.126 14.075-6.576-1.762z" fill="#3A3A3A"/><path d="M32.438 24.122l-4.8 4.802a1.543 1.543 0 000 2.182l9.004 9.005a1.544 1.544 0 002.182 0l12.539-12.538a1.543 1.543 0 000-2.183l-4.801-4.801a1.543 1.543 0 00-2.183 0l-6.645 6.646-3.113-3.112a1.543 1.543 0 00-2.183 0zm4.204 6.387a1.543 1.543 0 002.182 0l6.646-6.646 2.62 2.619-10.357 10.356-6.822-6.823 2.619-2.619 3.112 3.113z" fill="#EE53BA"/><path d="M59.562 30.35c0-4.1-1.229-8.042-3.553-11.401a20.038 20.038 0 00-9.117-7.254 1.543 1.543 0 10-1.138 2.869c6.513 2.582 10.721 8.779 10.721 15.786 0 9.36-7.615 16.975-16.975 16.975-9.36 0-16.975-7.615-16.975-16.975 0-7.007 4.208-13.204 10.721-15.786a1.543 1.543 0 00-1.138-2.87 20.039 20.039 0 00-9.117 7.254A19.947 19.947 0 0019.44 30.35c0 11.062 9 20.062 20.061 20.062 11.062 0 20.062-9 20.062-20.062z" fill="#3A3A3A"/><path d="M39.5 13.374a1.548 1.548 0 001.543-1.543c0-.406-.165-.804-.452-1.091a1.554 1.554 0 00-1.091-.452c-.406 0-.804.165-1.091.452a1.555 1.555 0 00-.452 1.091 1.546 1.546 0 001.543 1.543z" fill="#3A3A3A"/></g><defs><clipPath id="clip0"><path fill="#fff" d="M0 0h79v79H0z"/></clipPath></defs></svg>